<svg width="15" height="16" viewBox="0 0 15 16" fill="none" xmlns="http://www.w3.org/2000/svg">
<path d="M2.8125 13.625C2.8125 13.625 1.875 13.625 1.875 12.6875C1.875 11.75 2.8125 8.9375 7.5 8.9375C12.1875 8.9375 13.125 11.75 13.125 12.6875C13.125 13.625 12.1875 13.625 12.1875 13.625H2.8125ZM7.5 8C8.24592 8 8.96129 7.70368 9.48874 7.17624C10.0162 6.64879 10.3125 5.93342 10.3125 5.1875C10.3125 4.44158 10.0162 3.72621 9.48874 3.19876C8.96129 2.67132 8.24592 2.375 7.5 2.375C6.75408 2.375 6.03871 2.67132 5.51126 3.19876C4.98382 3.72621 4.6875 4.44158 4.6875 5.1875C4.6875 5.93342 4.98382 6.64879 5.51126 7.17624C6.03871 7.70368 6.75408 8 7.5 8Z" fill="#7ABF62"/>
</svg>
