<svg width="16" height="16" viewBox="0 0 16 16" fill="none" xmlns="http://www.w3.org/2000/svg">
<path d="M0.425489 4.34454L2.80586 3.79523C3.0645 3.73572 3.33 3.87076 3.43528 4.11337L4.53392 6.67681C4.63005 6.90111 4.56596 7.16432 4.37599 7.31766C3.56046 7.98515 3.27837 9.14421 3.91806 9.98173C4.37525 10.5803 4.91292 11.1194 5.51569 11.5799C6.3532 12.2198 7.51242 11.9372 8.18 11.1216C8.33564 10.9316 8.59657 10.8676 8.82087 10.9637L11.3843 12.0623C11.6292 12.1699 11.7643 12.4354 11.7048 12.694L11.1555 15.0743C11.0982 15.3215 10.8785 15.5001 10.6199 15.5001C4.75822 15.5001 -0.000230789 10.7508 -0.000230789 4.88011C-0.000230789 4.62377 0.176008 4.40176 0.425489 4.34454Z" fill="#333333"/>
<path d="M6.76367 5.66891C7.15379 5.63166 7.54738 5.67634 7.91921 5.80009C8.29105 5.92384 8.63292 6.12393 8.9229 6.38753C9.21288 6.65114 9.44457 6.97243 9.60311 7.33081C9.76166 7.68919 9.84356 8.07674 9.84356 8.46863M6.79751 3.33476C7.4802 3.26956 8.16899 3.34775 8.81971 3.56431C9.47042 3.78088 10.0687 4.13104 10.5762 4.59234C11.0836 5.05365 11.4891 5.61591 11.7665 6.24307C12.044 6.87024 12.1873 7.54846 12.1873 8.23426M6.83134 1.0006C7.80662 0.907457 8.79061 1.01916 9.7202 1.32854C10.6498 1.63792 11.5045 2.13815 12.2294 2.79715C12.9544 3.45616 13.5336 4.25939 13.9299 5.15534C14.3263 6.05129 14.5311 7.02018 14.5311 7.99989" stroke="#333333" stroke-linecap="round"/>
</svg>
