<svg width="15" height="16" viewBox="0 0 15 16" fill="none" xmlns="http://www.w3.org/2000/svg">
<path d="M3.05007 14V2.75H7.89205C9.38352 2.75 10.5661 3.06607 11.4396 3.69821C12.3132 4.33036 12.75 5.27857 12.75 6.54286C12.75 7.79643 12.3132 8.73929 11.4396 9.37143C10.5661 10.0036 9.38352 10.3196 7.89205 10.3196H4.48828L5.65483 9.1625V14H3.05007ZM5.65483 9.43571L4.48828 8.27857H7.87607C8.58984 8.27857 9.14382 8.13393 9.538 7.84464C9.93217 7.54464 10.1293 7.11607 10.1293 6.55893C10.1293 6.0125 9.93217 5.59464 9.538 5.30536C9.14382 5.01607 8.58984 4.87143 7.87607 4.87143H4.48828L5.65483 3.63393V9.43571ZM1.5 12.5536V11.2196H9.10653V12.5536H1.5Z" fill="#7ABF62"/>
</svg>
