<svg width="16" height="16" viewBox="0 0 16 16" fill="none" xmlns="http://www.w3.org/2000/svg">
<path fill-rule="evenodd" clip-rule="evenodd" d="M2.31238 7.38404C5.72864 5.89565 8.00667 4.91442 9.14649 4.44034C12.4009 3.08673 13.0772 2.8516 13.5179 2.84383C13.6149 2.84213 13.8316 2.86615 13.972 2.98008C14.0906 3.07627 14.1232 3.20622 14.1388 3.29743C14.1544 3.38864 14.1738 3.59641 14.1584 3.75875C13.982 5.61173 13.2189 10.1084 12.8307 12.1838C12.6664 13.062 12.343 13.3564 12.0299 13.3852C11.3493 13.4478 10.8326 12.9355 10.1734 12.5034C9.14203 11.8273 8.55936 11.4065 7.5582 10.7467C6.40119 9.98431 7.15123 9.56526 7.81061 8.88041C7.98317 8.70119 10.9816 5.97393 11.0396 5.72652C11.0469 5.69558 11.0536 5.58024 10.9851 5.51934C10.9166 5.45844 10.8155 5.47926 10.7425 5.49583C10.639 5.51931 8.99135 6.60834 5.79944 8.76294C5.33175 9.08408 4.90814 9.24056 4.52859 9.23236C4.11017 9.22332 3.3053 8.99578 2.70696 8.80129C1.97307 8.56273 1.38979 8.43661 1.44058 8.03147C1.46704 7.82045 1.75764 7.60464 2.31238 7.38404Z" fill="#2AABEE"/>
</svg>
