<svg width="15" height="16" viewBox="0 0 15 16" fill="none" xmlns="http://www.w3.org/2000/svg">
<path d="M12.5216 2.34036C12.1721 2.01792 10.76 0.992771 7.61441 0.978844C7.61441 0.978844 3.90501 0.75516 2.09673 2.41379C1.09014 3.42058 0.736037 4.89373 0.698685 6.72012C0.661334 8.54652 0.613008 11.9693 3.91239 12.8974H3.91556L3.91345 14.3135C3.91345 14.3135 3.89235 14.8869 4.26987 15.0038C4.72653 15.1456 4.99453 14.7098 5.43051 14.2401C5.66981 13.9822 6.00028 13.6035 6.24929 13.3139C8.50579 13.5039 10.2413 13.0698 10.4384 13.0056C10.894 12.8579 13.4721 12.5277 13.8914 9.1051C14.3242 5.57744 13.682 3.34609 12.5216 2.34036ZM12.904 8.85208C12.5501 11.7097 10.459 11.8893 10.0735 12.013C9.90953 12.0657 8.38529 12.4449 6.46855 12.3198C6.46855 12.3198 5.04032 14.0428 4.59422 14.4908C4.52458 14.5609 4.4427 14.5891 4.38804 14.5752C4.31123 14.5564 4.29013 14.4655 4.29097 14.3325C4.29224 14.1426 4.30321 11.9792 4.30321 11.9792C1.51219 11.2043 1.67489 8.29119 1.70654 6.76571C1.7382 5.24023 2.02477 3.99055 2.87605 3.15005C4.40556 1.76469 7.55638 1.9717 7.55638 1.9717C10.2172 1.98331 11.4922 2.78456 11.7879 3.05298C12.7696 3.89348 13.2697 5.90474 12.904 8.85124V8.85208Z" fill="#7360F2"/>
<path fill-rule="evenodd" clip-rule="evenodd" d="M7.66821 5.53191C7.67333 5.4338 7.75702 5.35841 7.85514 5.36353C8.22222 5.38268 8.52763 5.49379 8.74514 5.71869C8.96183 5.94272 9.06804 6.2557 9.08669 6.63158C9.09156 6.7297 9.01596 6.8132 8.91783 6.81807C8.8197 6.82293 8.73621 6.74733 8.73134 6.64921C8.71538 6.32745 8.6271 6.1084 8.4894 5.96603C8.35253 5.82452 8.14367 5.73485 7.8366 5.71883C7.73848 5.71371 7.6631 5.63002 7.66821 5.53191Z" fill="#7360F2"/>
<path fill-rule="evenodd" clip-rule="evenodd" d="M7.39892 4.57312C7.40609 4.47513 7.49134 4.40151 7.58932 4.40869C8.33638 4.46336 8.93767 4.71861 9.37567 5.19671L9.37573 5.19677C9.80897 5.67017 10.0149 6.25907 9.99993 6.94981C9.9978 7.04804 9.91645 7.12594 9.81822 7.12381C9.72 7.12169 9.6421 7.04034 9.64422 6.94211C9.65741 6.33296 9.47827 5.8358 9.11326 5.43697C8.74937 5.03979 8.24069 4.81309 7.56336 4.76352C7.46537 4.75635 7.39175 4.6711 7.39892 4.57312Z" fill="#7360F2"/>
<path fill-rule="evenodd" clip-rule="evenodd" d="M7.08497 3.662C7.08565 3.56376 7.16585 3.48467 7.26409 3.48536C8.29648 3.49255 9.16911 3.83623 9.86975 4.51923C10.5762 5.20793 10.9256 6.14555 10.9345 7.31004C10.9352 7.40829 10.8562 7.48853 10.7579 7.48928C10.6597 7.49003 10.5795 7.41099 10.5787 7.31275C10.5704 6.22156 10.2458 5.38264 9.62139 4.77399C8.99116 4.15962 8.20865 3.84773 7.26162 3.84113C7.16337 3.84045 7.08428 3.76025 7.08497 3.662Z" fill="#7360F2"/>
<path d="M7.88176 9.02254C7.88176 9.02254 8.13182 9.04364 8.26646 8.87778L8.52897 8.54753C8.65559 8.38377 8.96115 8.27932 9.26039 8.44602C9.48462 8.57391 9.70232 8.71294 9.91267 8.86258C10.1112 9.00861 10.5179 9.34793 10.5192 9.34793C10.7129 9.51148 10.7576 9.75162 10.6257 10.0048C10.6257 10.0063 10.6247 10.0089 10.6247 10.0101C10.4794 10.2619 10.295 10.489 10.0783 10.6829C10.0758 10.6841 10.0758 10.6854 10.0735 10.6867C9.88523 10.8439 9.7003 10.9333 9.51868 10.9549C9.49194 10.9595 9.46476 10.9612 9.43765 10.9599C9.35756 10.9607 9.27787 10.9484 9.20172 10.9236L9.19581 10.915C8.91599 10.8361 8.44878 10.6385 7.67073 10.2093C7.22048 9.96387 6.79184 9.68072 6.38938 9.36292C6.18766 9.20372 5.99524 9.03307 5.81307 8.85182L5.79366 8.83241L5.77424 8.81299L5.75483 8.79337C5.74829 8.78704 5.74196 8.7805 5.73541 8.77395C5.55416 8.59179 5.38351 8.39937 5.22431 8.19765C4.90655 7.79525 4.6234 7.36668 4.37789 6.91654C3.94866 6.13829 3.75114 5.67151 3.67222 5.39127L3.66357 5.38536C3.63883 5.30919 3.62664 5.22951 3.62748 5.14944C3.626 5.12233 3.62763 5.09514 3.63233 5.0684C3.65498 4.88721 3.74453 4.70221 3.90097 4.51342C3.90224 4.51109 3.9035 4.51109 3.90477 4.50856C4.09855 4.29191 4.32566 4.10755 4.57752 3.96244C4.57878 3.96244 4.58132 3.96117 4.58279 3.96117C4.83602 3.82928 5.07617 3.87402 5.2395 4.06668C5.24077 4.06795 5.57947 4.47459 5.72486 4.67316C5.87453 4.8837 6.01356 5.10161 6.14143 5.32606C6.30814 5.62508 6.20368 5.93127 6.03992 6.05747L5.70967 6.31998C5.54296 6.45461 5.56491 6.70467 5.56491 6.70467C5.56491 6.70467 6.05406 8.55597 7.88176 9.02254Z" fill="#7360F2"/>
</svg>
