<svg width="15" height="16" viewBox="0 0 15 16" fill="none" xmlns="http://www.w3.org/2000/svg">
<path d="M4.35246 12.7994L4.56506 12.9248C5.4584 13.4526 6.4826 13.7317 7.52704 13.7322H7.52932C10.7369 13.7322 13.3475 11.1341 13.3487 7.94096C13.3492 6.39342 12.7445 4.93845 11.6458 3.84373C10.547 2.7492 9.08605 2.14601 7.5314 2.14537C4.32138 2.14537 1.71078 4.74305 1.70957 7.93622C1.70914 9.03044 2.01664 10.0961 2.59927 11.0181L2.73775 11.2372L2.14971 13.3742L4.35246 12.7994ZM0.46875 15.0296L1.46205 11.4192C0.849371 10.3625 0.527057 9.16382 0.527562 7.9359C0.529055 4.09421 3.66977 0.96875 7.52946 0.96875C9.40235 0.969554 11.1603 1.69514 12.4822 3.01214C13.804 4.32913 14.5318 6.07974 14.5312 7.94152C14.5295 11.783 11.3881 14.9091 7.52946 14.9091C7.52918 14.9091 7.5296 14.9091 7.52946 14.9091H7.52647C6.35468 14.9087 5.20327 14.6161 4.18062 14.0609L0.46875 15.0296Z" fill="#F5D58F"/>
<mask id="path-2-inside-1_7077_34496" fill="white">
<path d="M0.768586 7.93991C0.768163 9.12522 1.0793 10.2824 1.6709 11.3026L0.711914 14.7881L4.29511 13.8528C5.28235 14.3884 6.39388 14.6711 7.52511 14.6715H7.52803C11.2533 14.6715 14.2855 11.6539 14.2871 7.94519C14.2878 6.14788 13.5854 4.4581 12.3091 3.18658C11.0331 1.91524 9.33607 1.21471 7.52772 1.21387C3.80224 1.21387 0.770201 4.23102 0.768586 7.93991ZM7.52803 14.6715C7.52788 14.6715 7.52796 14.6715 7.52803 14.6715V14.6715Z"/>
</mask>
<path d="M0.768586 7.93991L0.152274 7.93964L0.152274 7.93969L0.768586 7.93991ZM1.6709 11.3026L2.26513 11.4661L2.33368 11.217L2.20406 10.9935L1.6709 11.3026ZM0.711914 14.7881L0.117684 14.6246L-0.16557 15.6541L0.867566 15.3844L0.711914 14.7881ZM4.29511 13.8528L4.58897 13.3111L4.375 13.195L4.13946 13.2565L4.29511 13.8528ZM7.52511 14.6715L7.52491 15.2878H7.52511V14.6715ZM14.2871 7.94519L14.9034 7.94546V7.94543L14.2871 7.94519ZM12.3091 3.18658L11.8742 3.62318L11.8742 3.62319L12.3091 3.18658ZM7.52772 1.21387L7.52801 0.597555H7.52772V1.21387ZM0.152274 7.93969C0.151812 9.23341 0.491508 10.4974 1.13775 11.6118L2.20406 10.9935C1.66708 10.0675 1.38451 9.01703 1.3849 7.94013L0.152274 7.93969ZM1.07667 11.1391L0.117684 14.6246L1.30614 14.9516L2.26513 11.4661L1.07667 11.1391ZM0.867566 15.3844L4.45076 14.4492L4.13946 13.2565L0.556262 14.1918L0.867566 15.3844ZM4.00124 14.3946C5.07883 14.9791 6.29132 15.2874 7.52491 15.2878L7.5253 14.0551C6.49644 14.0548 5.48588 13.7976 4.58897 13.3111L4.00124 14.3946ZM7.52511 15.2878H7.52803V14.0551H7.52511V15.2878ZM7.52803 15.2878C11.591 15.2878 14.9017 11.997 14.9034 7.94546L13.6708 7.94492C13.6694 11.3108 10.9156 14.0551 7.52803 14.0551V15.2878ZM14.9034 7.94543C14.9042 5.98373 14.1362 4.13688 12.7441 2.74998L11.8742 3.62319C13.0346 4.77933 13.6715 6.31204 13.6708 7.94495L14.9034 7.94543ZM12.7441 2.74998C11.3522 1.36321 9.49874 0.598475 7.52801 0.597555L7.52744 1.83018C9.17341 1.83095 10.714 2.46728 11.8742 3.62318L12.7441 2.74998ZM7.52772 0.597555C3.46457 0.597555 0.154038 3.88788 0.152274 7.93964L1.3849 7.94018C1.38636 4.57416 4.13992 1.83018 7.52772 1.83018V0.597555ZM7.52803 14.0551C7.52803 14.0551 7.52803 14.0551 7.52803 14.0551C7.52803 14.0551 7.52803 14.0551 7.52803 14.0551H7.52802C7.52802 14.0551 7.52802 14.0551 7.52802 14.0551C7.52802 14.0551 7.52802 14.0551 7.52802 14.0551C7.52802 14.0551 7.52802 14.0551 7.52802 14.0551H7.52802C7.52802 14.0551 7.52802 14.0551 7.52802 14.0551C7.52802 14.0551 7.52802 14.0551 7.52802 14.0551H7.52802C7.52802 14.0551 7.52802 14.0551 7.52802 14.0551C7.52802 14.0551 7.52802 14.0551 7.52802 14.0551H7.52802C7.52802 14.0551 7.52802 14.0551 7.52802 14.0551H7.52802C7.52801 14.0551 7.52801 14.0551 7.52801 14.0551C7.52801 14.0551 7.52801 14.0551 7.52801 14.0551H7.52801C7.52801 14.0551 7.52801 14.0551 7.52801 14.0551H7.52801C7.52801 14.0551 7.52801 14.0551 7.52801 14.0551H7.52801C7.52801 14.0551 7.52801 14.0551 7.52801 14.0551H7.52801C7.52801 14.0551 7.52801 14.0551 7.52801 14.0551H7.52801C7.52801 14.0551 7.52801 14.0551 7.52801 14.0551H7.52801C7.52801 14.0551 7.52801 14.0551 7.528 14.0551H7.528C7.528 14.0551 7.528 14.0551 7.528 14.0551H7.528C7.528 14.0551 7.528 14.0551 7.528 14.0551C7.528 14.0551 7.528 14.0551 7.528 14.0551H7.528C7.528 14.0551 7.528 14.0551 7.528 14.0551H7.528C7.528 14.0551 7.528 14.0551 7.528 14.0551C7.528 14.0551 7.528 14.0551 7.528 14.0551H7.528C7.528 14.0551 7.528 14.0551 7.528 14.0551H7.528H7.528C7.528 14.0551 7.528 14.0551 7.52799 14.0551C7.52799 14.0551 7.52799 14.0551 7.52799 14.0551H7.52799C7.52799 14.0551 7.52799 14.0551 7.52799 14.0551C7.52799 14.0551 7.52799 14.0551 7.52799 14.0551H7.52799C7.52799 14.0551 7.52799 14.0551 7.52799 14.0551C7.52799 14.0551 7.52799 14.0551 7.52799 14.0551C7.52799 14.0551 7.52799 14.0551 7.52799 14.0551H7.52799C7.52799 14.0551 7.52799 14.0551 7.52799 14.0551C7.52799 14.0551 7.52799 14.0551 7.52799 14.0551C7.52799 14.0551 7.52799 14.0551 7.52799 14.0551H7.52799H7.52799C7.52799 14.0551 7.52799 14.0551 7.52799 14.0551C7.52799 14.0551 7.52799 14.0551 7.52799 14.0551C7.52799 14.0551 7.52799 14.0551 7.52798 14.0551C7.52798 14.0551 7.52798 14.0551 7.52798 14.0551H7.52798H7.52798C7.52798 14.0551 7.52798 14.0551 7.52798 14.0551C7.52798 14.0551 7.52798 14.0551 7.52798 14.0551C7.52798 14.0551 7.52798 14.0551 7.52798 14.0551C7.52798 14.0551 7.52798 14.0551 7.52798 14.0551C7.52798 14.0551 7.52798 14.0551 7.52798 14.0551C7.52798 14.0551 7.52798 14.0551 7.52798 14.0551C7.52798 14.0551 7.52798 14.0551 7.52798 14.0551H7.52798H7.52798H7.52798H7.52798H7.52798H7.52798H7.52798H7.52798H7.52798H7.52797H7.52797H7.52797H7.52797H7.52797H7.52797H7.52797H7.52797C7.52797 14.0551 7.52797 14.0551 7.52797 14.0551C7.52797 14.0551 7.52797 14.0551 7.52797 14.0551C7.52797 14.0551 7.52797 14.0551 7.52797 14.0551C7.52797 14.0551 7.52797 14.0551 7.52797 14.0551C7.52797 14.0551 7.52797 14.0551 7.52797 14.0551C7.52797 14.0551 7.52797 14.0551 7.52797 14.0551H7.52797H7.52797C7.52797 14.0551 7.52797 14.0551 7.52797 14.0551C7.52797 14.0551 7.52797 14.0551 7.52797 14.0551C7.52797 14.0551 7.52797 14.0551 7.52797 14.0551H7.52797C7.52797 14.0551 7.52797 14.0551 7.52797 14.0551C7.52797 14.0551 7.52797 14.0551 7.52796 14.0551C7.52796 14.0551 7.52796 14.0551 7.52796 14.0551H7.52796C7.52796 14.0551 7.52796 14.0551 7.52796 14.0551C7.52796 14.0551 7.52796 14.0551 7.52796 14.0551H7.52796C7.52796 14.0551 7.52796 14.0551 7.52796 14.0551C7.52796 14.0551 7.52796 14.0551 7.52796 14.0551H7.52796C7.52796 14.0551 7.52796 14.0551 7.52796 14.0551H7.52796C7.52796 14.0551 7.52796 14.0551 7.52796 14.0551H7.52796C7.52796 14.0551 7.52796 14.0551 7.52796 14.0551H7.52796C7.52796 14.0551 7.52796 14.0551 7.52796 14.0551C7.52796 14.0551 7.52796 14.0551 7.52796 14.0551H7.52796C7.52796 14.0551 7.52796 14.0551 7.52796 14.0551C7.52796 14.0551 7.52796 14.0551 7.52796 14.0551H7.52796H7.52795C7.52795 14.0551 7.52795 14.0551 7.52795 14.0551C7.52795 14.0551 7.52795 14.0551 7.52795 14.0551C7.52795 14.0551 7.52795 14.0551 7.52795 14.0551C7.52795 14.0551 7.52795 14.0551 7.52795 14.0551C7.52795 14.0551 7.52795 14.0551 7.52795 14.0551H7.52795H7.52795C7.52795 14.0551 7.52795 14.0551 7.52795 14.0551H7.52795C7.52795 14.0551 7.52795 14.0551 7.52795 14.0551H7.52795H7.52795C7.52795 14.0551 7.52795 14.0551 7.52795 14.0551H7.52795C7.52795 14.0551 7.52795 14.0551 7.52795 14.0551H7.52795H7.52795C7.52795 14.0551 7.52795 14.0551 7.52795 14.0551C7.52795 14.0551 7.52795 14.0551 7.52795 14.0551C7.52795 14.0551 7.52795 14.0551 7.52795 14.0551C7.52795 14.0551 7.52795 14.0551 7.52794 14.0551C7.52794 14.6715 7.52794 15.2878 7.52794 15.2878C7.52794 15.2878 7.52794 15.2878 7.52795 15.2878H7.52795C7.52795 15.2878 7.52795 15.2878 7.52795 15.2878C7.52795 15.2878 7.52795 15.2878 7.52795 15.2878C7.52795 15.2878 7.52795 15.2878 7.52795 15.2878C7.52795 15.2878 7.52795 15.2878 7.52795 15.2878C7.52795 15.2878 7.52795 15.2878 7.52795 15.2878C7.52795 15.2878 7.52795 15.2878 7.52795 15.2878H7.52795C7.52795 15.2878 7.52795 15.2878 7.52795 15.2878C7.52795 15.2878 7.52795 15.2878 7.52795 15.2878C7.52795 15.2878 7.52795 15.2878 7.52795 15.2878C7.52795 15.2878 7.52795 15.2878 7.52795 15.2878C7.52795 15.2878 7.52795 15.2878 7.52795 15.2878H7.52795C7.52795 15.2878 7.52795 15.2878 7.52795 15.2878C7.52795 15.2878 7.52795 15.2878 7.52795 15.2878C7.52795 15.2878 7.52795 15.2878 7.52795 15.2878H7.52795C7.52795 15.2878 7.52795 15.2878 7.52795 15.2878C7.52795 15.2878 7.52795 15.2878 7.52795 15.2878H7.52796C7.52796 15.2878 7.52796 15.2878 7.52796 15.2878C7.52796 15.2878 7.52796 15.2878 7.52796 15.2878C7.52796 15.2878 7.52796 15.2878 7.52796 15.2878C7.52796 15.2878 7.52796 15.2878 7.52796 15.2878C7.52796 15.2878 7.52796 15.2878 7.52796 15.2878C7.52796 15.2878 7.52796 15.2878 7.52796 15.2878C7.52796 15.2878 7.52796 15.2878 7.52796 15.2878C7.52796 15.2878 7.52796 15.2878 7.52796 15.2878C7.52796 15.2878 7.52796 15.2878 7.52796 15.2878C7.52796 15.2878 7.52796 15.2878 7.52796 15.2878C7.52796 15.2878 7.52796 15.2878 7.52796 15.2878C7.52796 15.2878 7.52796 15.2878 7.52796 15.2878H7.52796H7.52796C7.52796 15.2878 7.52796 15.2878 7.52796 15.2878C7.52796 15.2878 7.52796 15.2878 7.52796 15.2878C7.52796 15.2878 7.52796 15.2878 7.52796 15.2878H7.52796C7.52796 15.2878 7.52796 15.2878 7.52796 15.2878C7.52796 15.2878 7.52796 15.2878 7.52796 15.2878H7.52797C7.52797 15.2878 7.52797 15.2878 7.52797 15.2878C7.52797 15.2878 7.52797 15.2878 7.52797 15.2878H7.52797C7.52797 15.2878 7.52797 15.2878 7.52797 15.2878C7.52797 15.2878 7.52797 15.2878 7.52797 15.2878C7.52797 15.2878 7.52797 15.2878 7.52797 15.2878C7.52797 15.2878 7.52797 15.2878 7.52797 15.2878H7.52797C7.52797 15.2878 7.52797 15.2878 7.52797 15.2878H7.52797C7.52797 15.2878 7.52797 15.2878 7.52797 15.2878H7.52797C7.52797 15.2878 7.52797 15.2878 7.52797 15.2878H7.52797C7.52797 15.2878 7.52797 15.2878 7.52797 15.2878H7.52797C7.52797 15.2878 7.52797 15.2878 7.52797 15.2878H7.52797C7.52797 15.2878 7.52797 15.2878 7.52797 15.2878H7.52797C7.52797 15.2878 7.52797 15.2878 7.52798 15.2878H7.52798C7.52798 15.2878 7.52798 15.2878 7.52798 15.2878C7.52798 15.2878 7.52798 15.2878 7.52798 15.2878H7.52798C7.52798 15.2878 7.52798 15.2878 7.52798 15.2878H7.52798C7.52798 15.2878 7.52798 15.2878 7.52798 15.2878C7.52798 15.2878 7.52798 15.2878 7.52798 15.2878H7.52798C7.52798 15.2878 7.52798 15.2878 7.52798 15.2878H7.52798C7.52798 15.2878 7.52798 15.2878 7.52798 15.2878C7.52798 15.2878 7.52798 15.2878 7.52798 15.2878H7.52798C7.52798 15.2878 7.52798 15.2878 7.52798 15.2878C7.52798 15.2878 7.52798 15.2878 7.52798 15.2878H7.52798C7.52798 15.2878 7.52798 15.2878 7.52798 15.2878C7.52798 15.2878 7.52798 15.2878 7.52798 15.2878H7.52798C7.52798 15.2878 7.52798 15.2878 7.52799 15.2878C7.52799 15.2878 7.52799 15.2878 7.52799 15.2878C7.52799 15.2878 7.52799 15.2878 7.52799 15.2878H7.52799C7.52799 15.2878 7.52799 15.2878 7.52799 15.2878C7.52799 15.2878 7.52799 15.2878 7.52799 15.2878H7.52799C7.52799 15.2878 7.52799 15.2878 7.52799 15.2878C7.52799 15.2878 7.52799 15.2878 7.52799 15.2878C7.52799 15.2878 7.52799 15.2878 7.52799 15.2878H7.52799C7.52799 15.2878 7.52799 15.2878 7.52799 15.2878C7.52799 15.2878 7.52799 15.2878 7.52799 15.2878H7.52799H7.52799C7.52799 15.2878 7.52799 15.2878 7.52799 15.2878C7.52799 15.2878 7.52799 15.2878 7.52799 15.2878H7.52799H7.52799C7.52799 15.2878 7.52799 15.2878 7.52799 15.2878C7.52799 15.2878 7.52799 15.2878 7.52799 15.2878C7.528 15.2878 7.528 15.2878 7.528 15.2878H7.528C7.528 15.2878 7.528 15.2878 7.528 15.2878C7.528 15.2878 7.528 15.2878 7.528 15.2878C7.528 15.2878 7.528 15.2878 7.528 15.2878H7.528H7.528C7.528 15.2878 7.528 15.2878 7.528 15.2878C7.528 15.2878 7.528 15.2878 7.528 15.2878C7.528 15.2878 7.528 15.2878 7.528 15.2878H7.528H7.528C7.528 15.2878 7.528 15.2878 7.528 15.2878C7.528 15.2878 7.528 15.2878 7.528 15.2878C7.528 15.2878 7.528 15.2878 7.528 15.2878H7.528H7.528C7.528 15.2878 7.528 15.2878 7.528 15.2878C7.528 15.2878 7.528 15.2878 7.528 15.2878C7.528 15.2878 7.528 15.2878 7.528 15.2878H7.528H7.52801C7.52801 15.2878 7.52801 15.2878 7.52801 15.2878C7.52801 15.2878 7.52801 15.2878 7.52801 15.2878C7.52801 15.2878 7.52801 15.2878 7.52801 15.2878C7.52801 15.2878 7.52801 15.2878 7.52801 15.2878H7.52801H7.52801C7.52801 15.2878 7.52801 15.2878 7.52801 15.2878C7.52801 15.2878 7.52801 15.2878 7.52801 15.2878C7.52801 15.2878 7.52801 15.2878 7.52801 15.2878C7.52801 15.2878 7.52801 15.2878 7.52801 15.2878H7.52801H7.52801C7.52801 15.2878 7.52801 15.2878 7.52801 15.2878C7.52801 15.2878 7.52801 15.2878 7.52801 15.2878C7.52801 15.2878 7.52801 15.2878 7.52801 15.2878C7.52801 15.2878 7.52801 15.2878 7.52801 15.2878H7.52801H7.52801C7.52801 15.2878 7.52801 15.2878 7.52801 15.2878C7.52801 15.2878 7.52801 15.2878 7.52801 15.2878C7.52802 15.2878 7.52802 15.2878 7.52802 15.2878C7.52802 15.2878 7.52802 15.2878 7.52802 15.2878H7.52802H7.52802C7.52802 15.2878 7.52802 15.2878 7.52802 15.2878C7.52802 15.2878 7.52802 15.2878 7.52802 15.2878C7.52802 15.2878 7.52802 15.2878 7.52802 15.2878C7.52802 15.2878 7.52802 15.2878 7.52802 15.2878C7.52802 15.2878 7.52802 15.2878 7.52802 15.2878H7.52802H7.52802C7.52802 15.2878 7.52802 15.2878 7.52802 15.2878C7.52802 15.2878 7.52802 15.2878 7.52802 15.2878C7.52802 15.2878 7.52802 15.2878 7.52802 15.2878C7.52802 15.2878 7.52802 15.2878 7.52802 15.2878C7.52802 15.2878 7.52802 15.2878 7.52802 15.2878H7.52802H7.52802C7.52802 15.2878 7.52802 15.2878 7.52802 15.2878C7.52802 15.2878 7.52802 15.2878 7.52802 15.2878C7.52802 15.2878 7.52802 15.2878 7.52802 15.2878C7.52803 15.2878 7.52803 15.2878 7.52803 15.2878C7.52803 15.2878 7.52803 15.2878 7.52803 15.2878H7.52803H7.52803C7.52803 15.2878 7.52803 15.2878 7.52803 15.2878V14.0551C7.52803 14.0551 7.52803 14.0551 7.52803 14.0551H7.52803H7.52803C7.52803 14.0551 7.52803 14.0551 7.52803 14.0551C7.52803 14.0551 7.52803 14.0551 7.52802 14.0551C7.52802 14.0551 7.52802 14.0551 7.52802 14.0551C7.52802 14.0551 7.52802 14.0551 7.52802 14.0551C7.52802 14.0551 7.52802 14.0551 7.52802 14.0551H7.52802H7.52802C7.52802 14.0551 7.52802 14.0551 7.52802 14.0551C7.52802 14.0551 7.52802 14.0551 7.52802 14.0551C7.52802 14.0551 7.52802 14.0551 7.52802 14.0551C7.52802 14.0551 7.52802 14.0551 7.52802 14.0551C7.52802 14.0551 7.52802 14.0551 7.52802 14.0551H7.52802H7.52802C7.52802 14.0551 7.52802 14.0551 7.52802 14.0551C7.52802 14.0551 7.52802 14.0551 7.52802 14.0551C7.52802 14.0551 7.52802 14.0551 7.52802 14.0551C7.52802 14.0551 7.52802 14.0551 7.52802 14.0551C7.52802 14.0551 7.52802 14.0551 7.52802 14.0551H7.52802H7.52802C7.52802 14.0551 7.52802 14.0551 7.52802 14.0551C7.52802 14.0551 7.52802 14.0551 7.52801 14.0551C7.52801 14.0551 7.52801 14.0551 7.52801 14.0551C7.52801 14.0551 7.52801 14.0551 7.52801 14.0551H7.52801H7.52801C7.52801 14.0551 7.52801 14.0551 7.52801 14.0551C7.52801 14.0551 7.52801 14.0551 7.52801 14.0551C7.52801 14.0551 7.52801 14.0551 7.52801 14.0551C7.52801 14.0551 7.52801 14.0551 7.52801 14.0551H7.52801H7.52801C7.52801 14.0551 7.52801 14.0551 7.52801 14.0551C7.52801 14.0551 7.52801 14.0551 7.52801 14.0551C7.52801 14.0551 7.52801 14.0551 7.52801 14.0551C7.52801 14.0551 7.52801 14.0551 7.52801 14.0551H7.52801H7.52801C7.52801 14.0551 7.52801 14.0551 7.52801 14.0551C7.52801 14.0551 7.52801 14.0551 7.52801 14.0551C7.52801 14.0551 7.52801 14.0551 7.52801 14.0551C7.52801 14.0551 7.52801 14.0551 7.52801 14.0551H7.528H7.528C7.528 14.0551 7.528 14.0551 7.528 14.0551C7.528 14.0551 7.528 14.0551 7.528 14.0551C7.528 14.0551 7.528 14.0551 7.528 14.0551H7.528H7.528C7.528 14.0551 7.528 14.0551 7.528 14.0551C7.528 14.0551 7.528 14.0551 7.528 14.0551C7.528 14.0551 7.528 14.0551 7.528 14.0551H7.528H7.528C7.528 14.0551 7.528 14.0551 7.528 14.0551C7.528 14.0551 7.528 14.0551 7.528 14.0551C7.528 14.0551 7.528 14.0551 7.528 14.0551H7.528H7.528C7.528 14.0551 7.528 14.0551 7.528 14.0551C7.528 14.0551 7.528 14.0551 7.528 14.0551C7.528 14.0551 7.528 14.0551 7.528 14.0551H7.528C7.528 14.0551 7.528 14.0551 7.52799 14.0551C7.52799 14.0551 7.52799 14.0551 7.52799 14.0551C7.52799 14.0551 7.52799 14.0551 7.52799 14.0551H7.52799H7.52799C7.52799 14.0551 7.52799 14.0551 7.52799 14.0551C7.52799 14.0551 7.52799 14.0551 7.52799 14.0551H7.52799H7.52799C7.52799 14.0551 7.52799 14.0551 7.52799 14.0551C7.52799 14.0551 7.52799 14.0551 7.52799 14.0551H7.52799C7.52799 14.0551 7.52799 14.0551 7.52799 14.0551C7.52799 14.0551 7.52799 14.0551 7.52799 14.0551C7.52799 14.0551 7.52799 14.0551 7.52799 14.0551H7.52799C7.52799 14.0551 7.52799 14.0551 7.52799 14.0551C7.52799 14.0551 7.52799 14.0551 7.52799 14.0551H7.52799C7.52799 14.0551 7.52799 14.0551 7.52799 14.0551C7.52799 14.0551 7.52799 14.0551 7.52799 14.0551C7.52798 14.0551 7.52798 14.0551 7.52798 14.0551H7.52798C7.52798 14.0551 7.52798 14.0551 7.52798 14.0551C7.52798 14.0551 7.52798 14.0551 7.52798 14.0551H7.52798C7.52798 14.0551 7.52798 14.0551 7.52798 14.0551C7.52798 14.0551 7.52798 14.0551 7.52798 14.0551H7.52798C7.52798 14.0551 7.52798 14.0551 7.52798 14.0551C7.52798 14.0551 7.52798 14.0551 7.52798 14.0551H7.52798C7.52798 14.0551 7.52798 14.0551 7.52798 14.0551H7.52798C7.52798 14.0551 7.52798 14.0551 7.52798 14.0551C7.52798 14.0551 7.52798 14.0551 7.52798 14.0551H7.52798C7.52798 14.0551 7.52798 14.0551 7.52798 14.0551H7.52798C7.52798 14.0551 7.52798 14.0551 7.52798 14.0551C7.52798 14.0551 7.52798 14.0551 7.52798 14.0551H7.52798C7.52797 14.0551 7.52797 14.0551 7.52797 14.0551H7.52797C7.52797 14.0551 7.52797 14.0551 7.52797 14.0551H7.52797C7.52797 14.0551 7.52797 14.0551 7.52797 14.0551H7.52797C7.52797 14.0551 7.52797 14.0551 7.52797 14.0551H7.52797C7.52797 14.0551 7.52797 14.0551 7.52797 14.0551H7.52797C7.52797 14.0551 7.52797 14.0551 7.52797 14.0551H7.52797C7.52797 14.0551 7.52797 14.0551 7.52797 14.0551H7.52797C7.52797 14.0551 7.52797 14.0551 7.52797 14.0551C7.52797 14.0551 7.52797 14.0551 7.52797 14.0551C7.52797 14.0551 7.52797 14.0551 7.52797 14.0551C7.52797 14.0551 7.52797 14.0551 7.52797 14.0551H7.52797C7.52797 14.0551 7.52797 14.0551 7.52797 14.0551C7.52797 14.0551 7.52797 14.0551 7.52797 14.0551H7.52796C7.52796 14.0551 7.52796 14.0551 7.52796 14.0551C7.52796 14.0551 7.52796 14.0551 7.52796 14.0551H7.52796C7.52796 14.0551 7.52796 14.0551 7.52796 14.0551C7.52796 14.0551 7.52796 14.0551 7.52796 14.0551C7.52796 14.0551 7.52796 14.0551 7.52796 14.0551H7.52796H7.52796C7.52796 14.0551 7.52796 14.0551 7.52796 14.0551C7.52796 14.0551 7.52796 14.0551 7.52796 14.0551C7.52796 14.0551 7.52796 14.0551 7.52796 14.0551C7.52796 14.0551 7.52796 14.0551 7.52796 14.0551C7.52796 14.0551 7.52796 14.0551 7.52796 14.0551C7.52796 14.0551 7.52796 14.0551 7.52796 14.0551C7.52796 14.0551 7.52796 14.0551 7.52796 14.0551C7.52796 14.0551 7.52796 14.0551 7.52796 14.0551C7.52796 14.0551 7.52796 14.0551 7.52796 14.0551C7.52796 14.0551 7.52796 14.0551 7.52796 14.0551C7.52796 14.0551 7.52796 14.0551 7.52796 14.0551C7.52796 14.0551 7.52796 14.0551 7.52796 14.0551H7.52795C7.52795 14.0551 7.52795 14.0551 7.52795 14.0551C7.52795 14.0551 7.52795 14.0551 7.52795 14.0551H7.52795C7.52795 14.0551 7.52795 14.0551 7.52795 14.0551C7.52795 14.0551 7.52795 14.0551 7.52795 14.0551C7.52795 14.0551 7.52795 14.0551 7.52795 14.0551H7.52795C7.52795 14.0551 7.52795 14.0551 7.52795 14.0551C7.52795 14.0551 7.52795 14.0551 7.52795 14.0551C7.52795 14.0551 7.52795 14.0551 7.52795 14.0551C7.52795 14.0551 7.52795 14.0551 7.52795 14.0551C7.52795 14.0551 7.52795 14.0551 7.52795 14.0551H7.52795C7.52795 14.0551 7.52795 14.0551 7.52795 14.0551C7.52795 14.0551 7.52795 14.0551 7.52795 14.0551C7.52795 14.0551 7.52795 14.0551 7.52795 14.0551C7.52795 14.0551 7.52795 14.0551 7.52795 14.0551C7.52795 14.0551 7.52795 14.0551 7.52795 14.0551C7.52795 14.0551 7.52795 14.0551 7.52795 14.0551H7.52795C7.52794 14.0551 7.52794 14.0551 7.52794 14.0551C7.52794 14.0551 7.52794 14.6715 7.52794 15.2878C7.52795 15.2878 7.52795 15.2878 7.52795 15.2878C7.52795 15.2878 7.52795 15.2878 7.52795 15.2878C7.52795 15.2878 7.52795 15.2878 7.52795 15.2878C7.52795 15.2878 7.52795 15.2878 7.52795 15.2878H7.52795H7.52795C7.52795 15.2878 7.52795 15.2878 7.52795 15.2878H7.52795C7.52795 15.2878 7.52795 15.2878 7.52795 15.2878H7.52795H7.52795C7.52795 15.2878 7.52795 15.2878 7.52795 15.2878H7.52795C7.52795 15.2878 7.52795 15.2878 7.52795 15.2878H7.52795H7.52795C7.52795 15.2878 7.52795 15.2878 7.52795 15.2878C7.52795 15.2878 7.52795 15.2878 7.52795 15.2878C7.52795 15.2878 7.52795 15.2878 7.52795 15.2878C7.52795 15.2878 7.52795 15.2878 7.52795 15.2878C7.52795 15.2878 7.52795 15.2878 7.52795 15.2878H7.52796H7.52796C7.52796 15.2878 7.52796 15.2878 7.52796 15.2878C7.52796 15.2878 7.52796 15.2878 7.52796 15.2878H7.52796C7.52796 15.2878 7.52796 15.2878 7.52796 15.2878C7.52796 15.2878 7.52796 15.2878 7.52796 15.2878H7.52796C7.52796 15.2878 7.52796 15.2878 7.52796 15.2878H7.52796C7.52796 15.2878 7.52796 15.2878 7.52796 15.2878H7.52796C7.52796 15.2878 7.52796 15.2878 7.52796 15.2878H7.52796C7.52796 15.2878 7.52796 15.2878 7.52796 15.2878C7.52796 15.2878 7.52796 15.2878 7.52796 15.2878H7.52796C7.52796 15.2878 7.52796 15.2878 7.52796 15.2878C7.52796 15.2878 7.52796 15.2878 7.52796 15.2878H7.52796C7.52796 15.2878 7.52796 15.2878 7.52796 15.2878C7.52797 15.2878 7.52797 15.2878 7.52797 15.2878C7.52797 15.2878 7.52797 15.2878 7.52797 15.2878H7.52797C7.52797 15.2878 7.52797 15.2878 7.52797 15.2878C7.52797 15.2878 7.52797 15.2878 7.52797 15.2878C7.52797 15.2878 7.52797 15.2878 7.52797 15.2878H7.52797H7.52797C7.52797 15.2878 7.52797 15.2878 7.52797 15.2878C7.52797 15.2878 7.52797 15.2878 7.52797 15.2878C7.52797 15.2878 7.52797 15.2878 7.52797 15.2878C7.52797 15.2878 7.52797 15.2878 7.52797 15.2878C7.52797 15.2878 7.52797 15.2878 7.52797 15.2878C7.52797 15.2878 7.52797 15.2878 7.52797 15.2878H7.52797H7.52797H7.52797H7.52797H7.52797H7.52797H7.52797H7.52798H7.52798H7.52798H7.52798H7.52798H7.52798H7.52798H7.52798H7.52798H7.52798C7.52798 15.2878 7.52798 15.2878 7.52798 15.2878C7.52798 15.2878 7.52798 15.2878 7.52798 15.2878C7.52798 15.2878 7.52798 15.2878 7.52798 15.2878C7.52798 15.2878 7.52798 15.2878 7.52798 15.2878C7.52798 15.2878 7.52798 15.2878 7.52798 15.2878C7.52798 15.2878 7.52798 15.2878 7.52798 15.2878C7.52798 15.2878 7.52798 15.2878 7.52798 15.2878H7.52798H7.52798C7.52798 15.2878 7.52798 15.2878 7.52798 15.2878C7.52799 15.2878 7.52799 15.2878 7.52799 15.2878C7.52799 15.2878 7.52799 15.2878 7.52799 15.2878C7.52799 15.2878 7.52799 15.2878 7.52799 15.2878H7.52799H7.52799C7.52799 15.2878 7.52799 15.2878 7.52799 15.2878C7.52799 15.2878 7.52799 15.2878 7.52799 15.2878C7.52799 15.2878 7.52799 15.2878 7.52799 15.2878H7.52799C7.52799 15.2878 7.52799 15.2878 7.52799 15.2878C7.52799 15.2878 7.52799 15.2878 7.52799 15.2878C7.52799 15.2878 7.52799 15.2878 7.52799 15.2878H7.52799C7.52799 15.2878 7.52799 15.2878 7.52799 15.2878C7.52799 15.2878 7.52799 15.2878 7.52799 15.2878H7.52799C7.52799 15.2878 7.52799 15.2878 7.52799 15.2878C7.528 15.2878 7.528 15.2878 7.528 15.2878H7.528H7.528C7.528 15.2878 7.528 15.2878 7.528 15.2878H7.528C7.528 15.2878 7.528 15.2878 7.528 15.2878C7.528 15.2878 7.528 15.2878 7.528 15.2878H7.528C7.528 15.2878 7.528 15.2878 7.528 15.2878H7.528C7.528 15.2878 7.528 15.2878 7.528 15.2878C7.528 15.2878 7.528 15.2878 7.528 15.2878H7.528C7.528 15.2878 7.528 15.2878 7.528 15.2878H7.528C7.52801 15.2878 7.52801 15.2878 7.52801 15.2878H7.52801C7.52801 15.2878 7.52801 15.2878 7.52801 15.2878H7.52801C7.52801 15.2878 7.52801 15.2878 7.52801 15.2878H7.52801C7.52801 15.2878 7.52801 15.2878 7.52801 15.2878H7.52801C7.52801 15.2878 7.52801 15.2878 7.52801 15.2878H7.52801C7.52801 15.2878 7.52801 15.2878 7.52801 15.2878H7.52801C7.52801 15.2878 7.52801 15.2878 7.52801 15.2878C7.52801 15.2878 7.52801 15.2878 7.52802 15.2878H7.52802C7.52802 15.2878 7.52802 15.2878 7.52802 15.2878H7.52802C7.52802 15.2878 7.52802 15.2878 7.52802 15.2878C7.52802 15.2878 7.52802 15.2878 7.52802 15.2878H7.52802C7.52802 15.2878 7.52802 15.2878 7.52802 15.2878C7.52802 15.2878 7.52802 15.2878 7.52802 15.2878H7.52802C7.52802 15.2878 7.52802 15.2878 7.52802 15.2878C7.52802 15.2878 7.52802 15.2878 7.52802 15.2878C7.52802 15.2878 7.52802 15.2878 7.52802 15.2878H7.52803C7.52803 15.2878 7.52803 15.2878 7.52803 15.2878C7.52803 15.2878 7.52803 15.2878 7.52803 15.2878V14.0551Z" fill="#F5D58F" mask="url(#path-2-inside-1_7077_34496)"/>
<path d="M0.527562 7.93709C0.527138 9.165 0.849452 10.3638 1.46213 11.4204L0.46875 15.0306L4.18051 14.0618C5.20321 14.617 6.35456 14.9096 7.52635 14.91H7.52934C11.388 14.91 14.5294 11.784 14.531 7.9425C14.5317 6.08062 13.8039 4.33005 12.4821 3.01312C11.1601 1.6962 9.40228 0.97053 7.52934 0.969727C3.66985 0.969727 0.529059 4.09519 0.527444 7.93687M2.73783 11.2383L2.59927 11.0193C2.01665 10.0972 1.70914 9.03152 1.70957 7.9374C1.71084 4.74443 4.32138 2.14654 7.5314 2.14654C9.08589 2.14714 10.5469 2.7504 11.6458 3.8449C12.7446 4.93949 13.3492 6.39457 13.3488 7.94194C13.3474 11.1351 10.7368 13.7332 7.5292 13.7332H7.52692C6.4825 13.7326 5.45822 13.4535 4.56494 12.9259L4.35234 12.8004L2.14963 13.3753L2.73783 11.2383ZM7.52934 14.91C7.5292 14.91 7.52927 14.91 7.52934 14.91V14.91Z" fill="url(#paint0_linear_7077_34496)"/>
<path fill-rule="evenodd" clip-rule="evenodd" d="M5.77948 5.0247C5.64841 4.73468 5.51049 4.72887 5.38582 4.72377C5.2838 4.71945 5.16711 4.71973 5.05055 4.71973C4.93386 4.71973 4.74432 4.76332 4.58406 4.93759C4.42364 5.11187 3.97168 5.53315 3.97168 6.38994C3.97168 7.24682 4.59867 8.07476 4.68602 8.19107C4.77352 8.30716 5.89634 10.1217 7.67443 10.8197C9.15232 11.3998 9.45305 11.2844 9.77381 11.2554C10.0946 11.2264 10.8089 10.8342 10.9546 10.4275C11.1005 10.0209 11.1005 9.67239 11.0567 9.5996C11.013 9.52703 10.8963 9.48344 10.7214 9.39641C10.5464 9.30931 9.6863 8.88796 9.52597 8.82984C9.36556 8.77179 9.24892 8.74281 9.13223 8.91716C9.0156 9.09129 8.68055 9.48344 8.57844 9.59961C8.47641 9.71598 8.37432 9.73051 8.19938 9.64341C8.02437 9.55602 7.4609 9.37231 6.79248 8.7791C6.27238 8.3175 5.92128 7.74746 5.81918 7.57309C5.71715 7.39895 5.80829 7.30463 5.896 7.21779C5.97461 7.13976 6.07101 7.01446 6.15852 6.91282C6.2458 6.81112 6.27493 6.73854 6.33324 6.62238C6.39162 6.50614 6.36243 6.40443 6.31871 6.31732C6.27493 6.23022 5.93505 5.36907 5.77948 5.0247Z" fill="#4DCB5B"/>
<defs>
<linearGradient id="paint0_linear_7077_34496" x1="7.49999" y1="15.031" x2="7.49999" y2="0.970149" gradientUnits="userSpaceOnUse">
<stop stop-color="#4DCB5B"/>
<stop offset="1" stop-color="#4DCB5B"/>
</linearGradient>
</defs>
</svg>
